<svg width="243" height="300" viewBox="0 0 243 300" fill="none" xmlns="http://www.w3.org/2000/svg">
<rect x="21.5199" width="200" height="300" rx="24" fill="#202020"/>
<ellipse cx="121.337" cy="150.346" rx="62.5651" ry="113.74" transform="rotate(40 121.337 150.346)" fill="#09A341"/>
<path d="M120.411 168.375V131.875C120.411 129.625 119.87 128.125 118.786 127.375C117.703 126.542 116.495 126 115.161 125.75C113.828 125.417 112.578 125.125 111.411 124.875C110.328 124.625 109.786 123.958 109.786 122.875C109.786 121.292 111.37 120.5 114.536 120.5H119.911C126.411 120.5 129.661 123.458 129.661 129.375V168.875C129.661 173.042 128.12 175.125 125.036 175.125C121.953 175.125 120.411 172.875 120.411 168.375Z" fill="black"/>
</svg>
