<svg width="243" height="300" viewBox="0 0 243 300" fill="none" xmlns="http://www.w3.org/2000/svg">
<rect x="21.443" width="200" height="300" rx="24" fill="#202020"/>
<ellipse cx="121.26" cy="150.346" rx="62.5651" ry="113.74" transform="rotate(40 121.26 150.346)" fill="#E93513"/>
<path d="M120.335 168.375V131.875C120.335 129.625 119.793 128.125 118.71 127.375C117.626 126.542 116.418 126 115.085 125.75C113.751 125.417 112.501 125.125 111.335 124.875C110.251 124.625 109.71 123.958 109.71 122.875C109.71 121.292 111.293 120.5 114.46 120.5H119.835C126.335 120.5 129.585 123.458 129.585 129.375V168.875C129.585 173.042 128.043 175.125 124.96 175.125C121.876 175.125 120.335 172.875 120.335 168.375Z" fill="black"/>
</svg>
